<?xml version="1.0" encoding="UTF-8"?>
<svg version="1.1" xmlns="http://www.w3.org/2000/svg" width="512" height="512">
<path d="M0 0 C5.10724272 1.24020734 9.14255456 4.49380699 13.31640625 7.5625 C14.11739746 8.1493457 14.11739746 8.1493457 14.93457031 8.74804688 C27.39439692 17.96729906 39.62526747 28.41568805 49.31640625 40.5625 C49.7124707 41.0462207 50.10853516 41.52994141 50.51660156 42.02832031 C57.44482407 50.49277888 63.64993539 59.2098996 69.31640625 68.5625 C69.86095459 69.43817627 69.86095459 69.43817627 70.41650391 70.33154297 C75.81440693 79.05819254 79.97760984 88.11110129 83.81640625 97.625 C84.25009521 98.69596924 84.68378418 99.76693848 85.13061523 100.87036133 C87.19297474 106.12741293 88.86817196 110.91955047 89.31640625 116.5625 C89.97640625 116.5625 90.63640625 116.5625 91.31640625 116.5625 C91.38988281 115.77746094 91.46335937 114.99242187 91.5390625 114.18359375 C92.58794597 109.29758885 94.59231331 105.1126241 96.75390625 100.625 C97.2012915 99.69494141 97.64867676 98.76488281 98.10961914 97.80664062 C119.3008363 54.73403534 161.51880435 23.30233753 204.62890625 4.3125 C205.48202393 3.92940674 206.3351416 3.54631348 207.21411133 3.15161133 C212.48451635 0.92373144 216.58994282 -0.19857338 222.31640625 0.5625 C225.18253259 2.19960859 226.0391342 3.64971238 226.99023438 6.78076172 C227.6138577 9.51040014 228.10703058 12.23809794 228.56640625 15 C228.73914063 15.94166016 228.911875 16.88332031 229.08984375 17.85351562 C229.85494269 22.15567909 230.40815803 26.18232856 230.31640625 30.5625 C234.10277356 29.21201742 237.88897956 27.86108355 241.67504883 26.50976562 C242.95788423 26.05196506 244.24076053 25.59427907 245.52368164 25.13671875 C247.38829641 24.47167039 249.25274235 23.80614873 251.1171875 23.140625 C252.94165405 22.4909375 252.94165405 22.4909375 254.80297852 21.828125 C257.04589242 21.02017102 259.28397866 20.19859884 261.51538086 19.359375 C262.47581299 18.9984375 263.43624512 18.6375 264.42578125 18.265625 C265.67246582 17.78851074 265.67246582 17.78851074 266.94433594 17.30175781 C270.63677835 16.15100487 274.54295695 15.54628395 278.31640625 16.5625 C281.85794852 19.56376156 283.49700896 22.63084537 285.33203125 26.859375 C285.86054688 28.06464844 286.3890625 29.26992188 286.93359375 30.51171875 C287.47806923 31.7785579 288.02233749 33.04548613 288.56640625 34.3125 C289.12544025 35.59542797 289.68532762 36.87798445 290.24609375 38.16015625 C291.61130166 41.29071923 292.96769193 44.42480433 294.31640625 47.5625 C298.25398254 47.5625 300.12557682 46.05860555 303.50390625 44.0625 C308.68005686 41.15087029 312.35790192 39.37079913 318.31640625 40.5625 C320.90365174 42.59049622 322.15711694 43.7784874 322.81895357 47.03600836 C322.82014506 47.97098984 322.82133654 48.90597133 322.82256413 49.86928558 C322.83913566 51.49208553 322.83913566 51.49208553 322.85604197 53.14766932 C322.84368082 54.92955408 322.84368082 54.92955408 322.83106995 56.74743652 C322.83801547 58.00984964 322.844961 59.27226275 322.852117 60.57293081 C322.87078715 64.07939168 322.86442465 67.58543147 322.85396397 71.09191012 C322.84698428 74.8724938 322.86296044 78.65298989 322.8759613 82.43354797 C322.89762688 89.84058674 322.89746797 97.24747202 322.88933576 104.65453207 C322.88304155 110.67320149 322.88416746 116.69182607 322.89060783 122.710495 C322.89150949 123.56638477 322.89241114 124.42227454 322.89334012 125.30410036 C322.89519128 127.04270432 322.89705384 128.78130826 322.89892768 130.51991218 C322.91551489 146.83125302 322.90677894 163.14250741 322.8899421 179.45384306 C322.87524248 194.38540504 322.88987556 209.31676585 322.91871227 224.24830192 C322.94808544 239.57143802 322.95908475 254.89448119 322.94953007 270.21764421 C322.94850749 271.94993113 322.94751288 273.68221806 322.94654655 275.414505 C322.94607016 276.26687228 322.94559377 277.11923955 322.94510295 277.99743614 C322.94293616 284.0104267 322.95275685 290.02332956 322.96731758 296.03630066 C322.98480924 303.36196031 322.98476929 310.68736335 322.96196593 318.01301277 C322.95079495 321.75233536 322.94772498 325.49120534 322.96626663 329.2305088 C322.98608794 333.27990249 322.96735164 337.32818566 322.94459534 341.37756348 C322.95643107 342.56548666 322.96826679 343.75340983 322.98046118 344.97733068 C322.88933227 352.91397745 322.88933227 352.91397745 319.97991848 356.20728302 C319.10095944 356.65450462 318.22200041 357.10172623 317.31640625 357.5625 C316.24575928 358.17907471 315.1751123 358.79564941 314.07202148 359.4309082 C312.84252146 360.080438 311.61000004 360.72427094 310.375 361.36328125 C309.7038768 361.71618225 309.0327536 362.06908325 308.34129333 362.43267822 C306.14795773 363.58487938 303.95091371 364.7298184 301.75390625 365.875 C299.43269835 367.0927167 297.11252308 368.31238625 294.7923584 369.53208923 C293.22408076 370.35632815 291.65547552 371.17994402 290.08654785 372.00294495 C283.09921004 375.6693007 276.14159729 379.38873506 269.19140625 383.125 C259.24696716 388.46395517 249.28682595 393.77227686 239.31640625 399.0625 C229.30496401 404.37470911 219.30330018 409.70423499 209.31640625 415.0625 C198.65692819 420.78162636 187.98015194 426.46726163 177.29351807 432.13543701 C170.03977823 435.98293923 162.79055811 439.83825321 155.55859375 443.7265625 C154.93301575 444.06270569 154.30743774 444.39884888 153.66290283 444.74517822 C150.73213769 446.32027396 147.80257303 447.89748826 144.875 449.47851562 C139.24434058 452.50749337 133.58888203 455.48308815 127.88671875 458.375 C126.77312988 458.94089844 125.65954102 459.50679688 124.51220703 460.08984375 C106.37915211 468.44573277 79.95131329 468.96193672 61.23945618 462.31132507 C58.0173352 461.05664887 54.95871106 459.51547568 51.8828125 457.94140625 C51.19274109 457.59215591 50.50266968 457.24290558 49.79168701 456.8830719 C42.17033466 453.01008746 34.61403595 449.01420325 27.06640625 445 C25.57573734 444.20896447 24.08501362 443.41803221 22.59423828 442.62719727 C12.31396425 437.17035459 2.05085551 431.6817507 -8.20410156 426.17749023 C-17.01784351 421.4483032 -25.8479566 416.7506168 -34.68359375 412.0625 C-45.83850355 406.14355126 -56.97791192 400.19682701 -68.10546875 394.2265625 C-76.27673169 389.84513871 -84.46047429 385.4878039 -92.65054321 381.1416626 C-94.66669587 380.07146956 -96.68242762 379.00048837 -98.69799805 377.92919922 C-99.35814407 377.57834259 -100.0182901 377.22748596 -100.69844055 376.86599731 C-102.02827452 376.15920896 -103.35809835 375.45240155 -104.68791199 374.74557495 C-108.72694615 372.59954914 -112.76908157 370.45948978 -116.81326294 368.32318115 C-119.42325315 366.94313543 -122.03086424 365.55863895 -124.63793945 364.1730957 C-125.86508528 363.52219731 -127.09325868 362.87323208 -128.32250977 362.22631836 C-130.0145373 361.33559322 -131.70268035 360.43750077 -133.390625 359.5390625 C-134.34428955 359.03455566 -135.2979541 358.53004883 -136.28051758 358.01025391 C-138.56965733 356.63114198 -140.03431776 355.6439393 -141.68359375 353.5625 C-142.06079191 351.21319014 -142.06079191 351.21319014 -142.06391048 348.37876225 C-142.07235043 347.29888666 -142.08079037 346.21901108 -142.08948606 345.10641199 C-142.08347602 343.91557597 -142.07746597 342.72473995 -142.0712738 341.49781799 C-142.07665934 340.2362593 -142.08204488 338.97470061 -142.08759362 337.67491287 C-142.10210032 334.16625349 -142.09778737 330.65782796 -142.0904268 327.1491555 C-142.08571026 323.3678876 -142.09819152 319.58667142 -142.10844421 315.80541992 C-142.12566745 308.39492272 -142.12646494 300.98451018 -142.12123131 293.57399816 C-142.11719488 287.55245076 -142.11862688 281.53092844 -142.12397957 275.50938225 C-142.12472799 274.65335699 -142.12547641 273.79733172 -142.12624751 272.9153663 C-142.12777894 271.17652082 -142.12931729 269.43767535 -142.13086248 267.69882988 C-142.14460029 251.38083118 -142.13914087 235.06288038 -142.12767727 218.74488275 C-142.11774371 203.80681872 -142.1306854 188.86887852 -142.15461146 173.93083359 C-142.17897708 158.60321818 -142.18861658 143.27566051 -142.18195873 127.94802612 C-142.17846083 119.33840232 -142.18073608 110.7288738 -142.19820976 102.1192646 C-142.21290009 94.78995466 -142.21360891 87.46080708 -142.19613885 80.13150043 C-142.18760012 76.39021503 -142.18554872 72.64922004 -142.20079041 68.90794945 C-142.21709193 64.85645048 -142.20255094 60.80565824 -142.18479919 56.75416565 C-142.1944042 55.56556035 -142.20400921 54.37695505 -142.21390527 53.15233141 C-142.20409098 52.06984808 -142.19427669 50.98736475 -142.184165 49.8720789 C-142.18405766 48.93655534 -142.18395033 48.00103178 -142.18383974 47.03715903 C-141.52421708 43.77408206 -140.2826422 42.58500376 -137.68359375 40.5625 C-130.19177907 39.31386422 -125.10272624 42.45893183 -118.68359375 46.0625 C-117.71808594 46.58714844 -116.75257812 47.11179688 -115.7578125 47.65234375 C-113.39118667 48.94110039 -111.03403143 50.24452139 -108.68359375 51.5625 C-108.49249023 50.64436523 -108.30138672 49.72623047 -108.10449219 48.78027344 C-107.38581024 45.36329103 -106.65377553 41.94974135 -105.91259766 38.53759766 C-105.59505018 37.06250711 -105.2828107 35.5862632 -104.97607422 34.10888672 C-104.53325269 31.98076385 -104.07126726 29.85757147 -103.60546875 27.734375 C-103.3331543 26.4565918 -103.06083984 25.17880859 -102.78027344 23.86230469 C-101.60018278 20.31152435 -100.7092039 18.73556971 -97.68359375 16.5625 C-90.35013288 15.10921588 -82.59089276 17.13931329 -75.49609375 19 C-74.46581055 19.26514404 -73.43552734 19.53028809 -72.37402344 19.8034668 C-53.75235968 24.78384349 -36.10597415 32.4102136 -18.68359375 40.5625 C-18.48890503 39.04305786 -18.48890503 39.04305786 -18.2902832 37.49291992 C-17.41652694 31.83231545 -15.91590556 26.38507736 -14.40991211 20.86401367 C-13.87049922 18.87280533 -13.35028705 16.87715807 -12.83007812 14.88085938 C-12.48654297 13.61693359 -12.14300781 12.35300781 -11.7890625 11.05078125 C-11.48121826 9.90134033 -11.17337402 8.75189941 -10.85620117 7.56762695 C-8.75891072 2.19274705 -5.98663691 -0.35280365 0 0 Z " fill="#010000" transform="translate(165.68359375,23.4375)"/>
<path d="M0 0 C4.6530827 1.55102757 8.33766428 3.10107734 12.6015625 5.38671875 C13.22669739 5.72016296 13.85183228 6.05360718 14.49591064 6.39715576 C16.54132286 7.48954822 18.58313534 8.58849306 20.625 9.6875 C22.06764472 10.45948894 23.51051925 11.23104856 24.95361328 12.00219727 C28.6164348 13.96089637 32.27638472 15.92488953 35.93530273 17.89086914 C40.1301696 20.14430182 44.32782869 22.39252669 48.52490234 24.6418457 C50.77551635 25.84817612 53.02583762 27.05505285 55.27587891 28.26245117 C64.49970139 33.20828584 73.74712742 38.1087674 83 43 C94.51843528 49.08884924 106.01893767 55.20898347 117.49707031 61.37353516 C123.75216234 64.73095535 130.01494723 68.07282701 136.2890625 71.39453125 C136.99423004 71.76810257 137.69939758 72.14167389 138.42593384 72.52656555 C141.82966482 74.32956814 145.23440152 76.1306145 148.64111328 77.92797852 C157.85541234 82.80645184 166.90501518 87.88407104 176 93 C176 186.06 176 279.12 176 375 C171.3469173 373.44897243 167.66233572 371.89892266 163.3984375 369.61328125 C162.77321198 369.27979172 162.14798645 368.94630219 161.5038147 368.60270691 C159.45848948 367.51036842 157.41676617 366.41147435 155.375 365.3125 C153.9338185 364.54124655 152.49240887 363.77041924 151.05078125 363 C147.38868817 361.04157896 143.72946477 359.0778654 140.07116699 357.11236572 C136.97844929 355.45135376 133.88374868 353.79406048 130.7890625 352.13671875 C127.38673172 350.31444108 123.98462675 348.49175311 120.58349609 346.66723633 C111.73454531 341.92168507 102.86976775 337.20649399 94 332.5 C82.85236184 326.58481784 71.71934915 320.64348233 60.60009766 314.67504883 C54.33269345 311.31334396 48.0582075 307.96581792 41.7734375 304.63671875 C41.0734967 304.2657608 40.37355591 303.89480286 39.65240479 303.51260376 C36.2812102 301.72613011 32.90909164 299.94144808 29.53515625 298.16015625 C19.60930178 292.9034732 9.82476529 287.45820294 0 282 C0 188.94 0 95.88 0 0 Z " fill="#F7A827" transform="translate(40,86)"/>
<path d="M0 0 C0 93.06 0 186.12 0 282 C-24.82432432 295.54054054 -24.82432432 295.54054054 -33.5 300 C-41.0511893 303.91006788 -48.54712636 307.90571748 -56 312 C-64.40589148 316.6178288 -72.8794162 321.0873088 -81.39453125 325.5 C-87.97527199 328.91949181 -94.50019692 332.42929273 -101 336 C-108.45293516 340.09431631 -115.95008034 344.08742138 -123.5 348 C-131.17334846 351.97711172 -138.79571426 356.03385022 -146.375 360.1875 C-153.15340787 363.9000042 -159.93371141 367.60736717 -166.75 371.25 C-167.45946777 371.63309326 -168.16893555 372.01618652 -168.89990234 372.41088867 C-173.76760146 375 -173.76760146 375 -176 375 C-176 281.94 -176 188.88 -176 93 C-151.17567568 79.45945946 -151.17567568 79.45945946 -142.5 75 C-134.9488107 71.08993212 -127.45287364 67.09428252 -120 63 C-111.59267383 58.38138305 -103.11774026 53.91106248 -94.60107422 49.49780273 C-88.06292296 46.10059304 -81.58149652 42.61217557 -75.125 39.0625 C-67.30520945 34.76442807 -59.42773017 30.59546589 -51.5 26.5 C-43.40755158 22.31877665 -35.36345884 18.06431844 -27.375 13.6875 C-26.47555664 13.19475586 -25.57611328 12.70201172 -24.64941406 12.19433594 C-22.91880328 11.24553897 -21.1883294 10.29649224 -19.45800781 9.34716797 C-15.72828934 7.30300959 -11.99356089 5.26869478 -8.25 3.25 C-7.63560059 2.91444092 -7.02120117 2.57888184 -6.38818359 2.2331543 C-2.23031174 0 -2.23031174 0 0 0 Z " fill="#F7A827" transform="translate(472,86)"/>
<path d="M0 0 C7 0 7 0 9.390625 0.4921875 C13.17926281 1.22949725 16.89969564 1.14390493 20.75 1.125 C21.49121094 1.12886719 22.23242188 1.13273438 22.99609375 1.13671875 C31.3763905 1.12286702 39.59289769 0.49453543 48 0 C48 82.17 48 164.34 48 249 C42.53361269 249.68329841 37.4481214 250.14896835 31.9921875 250.1328125 C31.26307159 250.13376923 30.53395569 250.13472595 29.78274536 250.13571167 C28.25506503 250.13638679 26.72738172 250.13457956 25.19970703 250.13037109 C22.87395761 250.12499759 20.5483999 250.13034685 18.22265625 250.13671875 C16.72916625 250.13605815 15.23567636 250.13477737 13.7421875 250.1328125 C12.71072098 250.13584885 12.71072098 250.13584885 11.65841675 250.13894653 C7.58104949 250.11930731 4.08334222 249.68055704 0 249 C0 166.83 0 84.66 0 0 Z " fill="#F7A928" transform="translate(232,185)"/>
<path d="M0 0 C2.64178804 2.03963089 3.84562558 3.22943105 4.50793457 6.53538513 C4.51111694 7.48849075 4.51429932 8.44159637 4.51757812 9.42358398 C4.53018677 10.50828476 4.54279541 11.59298553 4.55578613 12.71055603 C4.54768921 13.87728348 4.53959229 15.04401093 4.53125 16.24609375 C4.5350769 17.44935806 4.53890381 18.65262238 4.54284668 19.89234924 C4.54556845 22.43678626 4.53818887 24.98125113 4.52148438 27.52563477 C4.50009931 31.41941826 4.52126972 35.31135249 4.546875 39.20507812 C4.54423141 41.67708741 4.53910578 44.14909554 4.53125 46.62109375 C4.53934692 47.78579697 4.54744385 48.95050018 4.55578613 50.15049744 C4.46312228 58.14538211 4.46312228 58.14538211 2.33935547 62.06445312 C-0.31389976 64.25971585 -2.8768253 65.80890068 -5.9609375 67.34765625 C-6.53881012 67.64071152 -7.11668274 67.93376678 -7.71206665 68.23570251 C-8.95050496 68.86233227 -10.19159496 69.48374428 -11.43505859 70.1003418 C-14.74703188 71.74299052 -18.03972433 73.42367451 -21.3359375 75.09765625 C-21.99680359 75.43181549 -22.65766968 75.76597473 -23.33856201 76.11026001 C-28.95767541 78.95733913 -34.49003835 81.94709865 -40 85 C-48.42492562 89.64924072 -56.94213244 94.10238796 -65.5 98.5 C-74.09924111 102.91896539 -82.65569018 107.39746844 -91.125 112.0625 C-98.95142467 116.35583612 -106.79208563 120.62179128 -114.6864624 124.78903198 C-116.45967967 125.72863482 -118.22627061 126.68070916 -119.99267578 127.63305664 C-121.07790527 128.2027417 -122.16313477 128.77242676 -123.28125 129.359375 C-124.24095703 129.86952148 -125.20066406 130.37966797 -126.18945312 130.90527344 C-129.48459292 132.18875214 -131.49824882 132.56588114 -135 132 C-137.83349609 130.27148438 -137.83349609 130.27148438 -140 127 C-140.73946322 122.88518932 -140.70041154 118.82789016 -140.6640625 114.65625 C-140.66884613 113.45440063 -140.67362976 112.25255127 -140.67855835 111.01428223 C-140.68195753 108.47581675 -140.67275412 105.93730751 -140.65185547 103.39892578 C-140.62509406 99.51365537 -140.65160683 95.63127431 -140.68359375 91.74609375 C-140.68028966 89.27863946 -140.67388345 86.81118696 -140.6640625 84.34375 C-140.67418365 83.18218384 -140.68430481 82.02061768 -140.69473267 80.82385254 C-140.57861646 72.83297987 -140.57861646 72.83297987 -137.8918457 68.96508789 C-134.71377859 66.80550476 -131.50886064 64.90779193 -128.06640625 63.21484375 C-127.40098312 62.87730576 -126.73556 62.53976776 -126.04997253 62.19200134 C-124.62855717 61.47204039 -123.2049722 60.75634932 -121.77941895 60.0446167 C-118.01617172 58.16527246 -114.26895417 56.25438827 -110.51953125 54.34765625 C-109.77653778 53.97088745 -109.03354431 53.59411865 -108.26803589 53.20593262 C-102.36609388 50.20667784 -96.54048332 47.08440441 -90.75 43.875 C-82.40952363 39.2648901 -73.97533174 34.85505121 -65.5 30.5 C-56.77693209 26.01708386 -48.09649848 21.4728731 -39.5 16.75 C-38.62714355 16.27272461 -37.75428711 15.79544922 -36.85498047 15.30371094 C-33.28288352 13.35043946 -29.71196544 11.39567204 -26.15332031 9.41796875 C-23.31881979 7.84632664 -20.47324414 6.29656244 -17.625 4.75 C-16.77486328 4.27143555 -15.92472656 3.79287109 -15.04882812 3.29980469 C-9.75755501 0.4556926 -6.02315293 -0.90282806 0 0 Z " fill="#020201" transform="translate(452,142)"/>
<path d="M0 0 C1.67275302 3.62222211 3.33716251 7.2482166 5 10.875 C5.71542969 12.42380859 5.71542969 12.42380859 6.4453125 14.00390625 C6.89648438 14.99003906 7.34765625 15.97617188 7.8125 16.9921875 C8.44091797 18.35899658 8.44091797 18.35899658 9.08203125 19.75341797 C10 22 10 22 10 24 C9.41847168 24.30067383 8.83694336 24.60134766 8.23779297 24.91113281 C-2.52433713 30.4827619 -13.25533923 36.09814934 -23.875 41.9375 C-32.74033909 46.81032109 -41.69115513 51.49920963 -50.67871094 56.14208984 C-58.45743589 60.1710026 -66.15581951 64.33052631 -73.83203125 68.55078125 C-80.34385631 72.12147897 -86.90626629 75.5831865 -93.5 79 C-101.05002798 82.91254191 -108.54555745 86.90835857 -116 91 C-117.81617051 91.99001592 -119.63257769 92.9795978 -121.44921875 93.96875 C-124.28091753 95.51065955 -127.10752758 97.05989514 -129.92431641 98.62890625 C-144.14854416 106.54190752 -157.28985425 113.43067386 -174 113 C-171.32000768 108.09393517 -168.4209238 103.67928306 -164.9375 99.3125 C-164.45635742 98.70656006 -163.97521484 98.10062012 -163.47949219 97.47631836 C-158.59297325 91.39045348 -153.40680667 85.62634651 -148 80 C-147.43265137 79.40541992 -146.86530273 78.81083984 -146.28076172 78.19824219 C-114.91948166 45.49615989 -47.61396792 0 0 0 Z " fill="#FAF1E5" transform="translate(436,58)"/>
<path d="M0 0 C6 2 6 2 21 10 C21 101.41 21 192.82 21 287 C15 285 15 285 0 277 C0 185.59 0 94.18 0 0 Z " fill="#F6A828" transform="translate(47,95)"/>
<path d="M0 0 C43.94840806 8.96665507 84.61932645 31.5994554 119 60 C119.55429688 60.45665039 120.10859375 60.91330078 120.6796875 61.38378906 C139.38061261 76.88530475 157.04375089 93.80835291 172 113 C172 113.33 172 113.66 172 114 C170.06176077 113.91063762 168.12438744 113.80249565 166.1875 113.6875 C165.10855469 113.62949219 164.02960938 113.57148438 162.91796875 113.51171875 C152.65590864 112.1714098 144.2521985 108.42901956 135.1875 103.5625 C133.99749807 102.93359748 132.80706055 102.30551857 131.61621094 101.67822266 C123.39093382 97.33230637 115.22042783 92.88346131 107.0690918 88.40063477 C100.59162667 84.84337222 94.0613142 81.39983334 87.5 78 C79.02738598 73.60938568 70.63305341 69.09455295 62.26953125 64.5 C55.72309377 60.91393439 49.12712207 57.4344 42.5 54 C32.05126589 48.58381529 21.71639992 42.97463052 11.39990234 37.31152344 C7.00674838 34.91070725 2.5883155 32.55730617 -1.83203125 30.20703125 C-4 29 -4 29 -5 28 C-4.54543101 18.45405121 -2.1715876 9.27217405 0 0 Z " fill="#FAF1E5" transform="translate(78,57)"/>
<path d="M0 0 C0 10.23 0 20.46 0 31 C-11.83223086 37.44121443 -23.66401645 43.86375717 -35.625 50.0625 C-43.00975774 53.88984751 -50.33860751 57.80117591 -57.625 61.8125 C-66.35085457 66.60924335 -75.15416094 71.2422117 -84 75.8125 C-84.59693665 76.12120026 -85.19387329 76.42990051 -85.80889893 76.74795532 C-94.502758 81.24016773 -103.24077291 85.63714518 -112 90 C-112 79.77 -112 69.54 -112 59 C-101.66099445 53.07765702 -91.20588744 47.47137885 -80.6184082 42.0065918 C-73.77805422 38.46756103 -66.99462667 34.8428706 -60.25 31.125 C-51.04286961 26.05318937 -41.72577972 21.21099449 -32.3744812 16.41262817 C-23.85404436 12.0385099 -15.40753385 7.56209891 -7.10058594 2.79248047 C-2.19959607 0 -2.19959607 0 0 0 Z " fill="#FDFDFD" transform="translate(440,163)"/>
<path d="M0 0 C0 93.06 0 186.12 0 282 C-1.98 282.99 -3.96 283.98 -6 285 C-6 194.91 -6 104.82 -6 12 C-28.95538869 23.86444488 -28.95538869 23.86444488 -51.6796875 36.10546875 C-57.24453528 39.15180539 -62.8673047 42.08151483 -68.5 45 C-76.00885327 48.89095124 -83.46409573 52.86310674 -90.875 56.9375 C-99.74036981 61.81026441 -108.69115413 66.49920911 -117.67871094 71.14208984 C-125.44404022 75.16406445 -133.12921389 79.31632653 -140.79248047 83.52880859 C-152.4112701 89.89889851 -164.14808988 96.07404494 -176 102 C-176 99.03 -176 96.06 -176 93 C-164.89306551 86.88356507 -153.75846226 80.8336405 -142.5 75 C-134.95003117 71.08751721 -127.4529331 67.09431518 -120 63 C-111.59267383 58.38138305 -103.11774026 53.91106248 -94.60107422 49.49780273 C-88.06292296 46.10059304 -81.58149652 42.61217557 -75.125 39.0625 C-67.30520945 34.76442807 -59.42773017 30.59546589 -51.5 26.5 C-43.40755158 22.31877665 -35.36345884 18.06431844 -27.375 13.6875 C-26.47555664 13.19475586 -25.57611328 12.70201172 -24.64941406 12.19433594 C-22.91880328 11.24553897 -21.1883294 10.29649224 -19.45800781 9.34716797 C-15.72828934 7.30300959 -11.99356089 5.26869478 -8.25 3.25 C-7.63560059 2.91444092 -7.02120117 2.57888184 -6.38818359 2.2331543 C-2.23031174 0 -2.23031174 0 0 0 Z " fill="#E0900D" transform="translate(472,86)"/>
<path d="M0 0 C4.6530827 1.55102757 8.33766428 3.10107734 12.6015625 5.38671875 C13.22669739 5.72016296 13.85183228 6.05360718 14.49591064 6.39715576 C16.54132286 7.48954822 18.58313534 8.58849306 20.625 9.6875 C22.06764472 10.45948894 23.51051925 11.23104856 24.95361328 12.00219727 C28.6164348 13.96089637 32.27638472 15.92488953 35.93530273 17.89086914 C40.1301696 20.14430182 44.32782869 22.39252669 48.52490234 24.6418457 C50.77551635 25.84817612 53.02583762 27.05505285 55.27587891 28.26245117 C64.49970139 33.20828584 73.74712742 38.1087674 83 43 C94.51843528 49.08884924 106.01893767 55.20898347 117.49707031 61.37353516 C123.75216114 64.73095471 130.01487009 68.07297413 136.2890625 71.39453125 C163.89446768 86.01144433 163.89446768 86.01144433 176 93 C176 94.65 176 96.3 176 98 C172.17705236 96.541921 168.57604152 94.82224407 164.94140625 92.9453125 C164.36467667 92.64787643 163.78794708 92.35044037 163.19374084 92.04399109 C161.31522542 91.07373951 159.43874163 90.09964047 157.5625 89.125 C156.91617615 88.79019623 156.26985229 88.45539246 155.60394287 88.11044312 C146.32858051 83.30402018 137.12055658 78.38896695 127.96899414 73.35009766 C121.52519958 69.80895072 115.02831581 66.38253569 108.5 63 C100.99114673 59.10904876 93.53590427 55.13689326 86.125 51.0625 C78.3052109 46.76442887 70.42775395 42.59541752 62.5 38.5 C53.73408031 33.97141343 45.02902359 29.35060891 36.39648438 24.57226562 C26.6792642 19.21402519 16.83992749 14.15424773 7 9 C7 100.08 7 191.16 7 285 C2 283 2 283 0 282 C0 188.94 0 95.88 0 0 Z " fill="#C48214" transform="translate(40,86)"/>
<path d="M0 0 C7 0 7 0 11 1 C11 82.84 11 164.68 11 249 C7.37 249 3.74 249 0 249 C0 166.83 0 84.66 0 0 Z " fill="#F7A827" transform="translate(232,185)"/>
<path d="M0 0 C4.04538254 0.84278803 5.39710041 2.45963863 8 5.625 C8.62361908 8.61573029 8.62361908 8.61573029 8.62145996 12.00109863 C8.63266876 13.28811172 8.64387756 14.57512482 8.65542603 15.90113831 C8.64251596 17.32016443 8.62910187 18.73918604 8.61523438 20.15820312 C8.61873674 21.65820442 8.62439663 23.158202 8.63204956 24.65818787 C8.64629092 28.72652661 8.6292429 32.79418894 8.60576439 36.862463 C8.58564852 41.12156286 8.59153533 45.38063482 8.59387207 49.63977051 C8.59381851 56.79202421 8.57406641 63.94401366 8.54199219 71.09619141 C8.50509966 79.3629336 8.49631671 87.62932966 8.5032897 95.89614344 C8.50959686 103.85129625 8.49883648 111.80633047 8.47932434 119.76145935 C8.47115357 123.14572338 8.4684402 126.52992676 8.47001648 129.91419983 C8.470896 133.90010749 8.4566614 137.88568666 8.43078995 141.87150764 C8.42363318 143.33359751 8.42154218 144.79572234 8.42490768 146.25782585 C8.42862743 148.25487344 8.4120199 150.25192797 8.39440918 152.24890137 C8.39068047 153.36607292 8.38695175 154.48324448 8.38311005 155.63426971 C7.95060092 159.01063156 7.01269853 160.90342737 5 163.625 C2.19084526 165.02957737 0.11189466 164.87395157 -3 164.625 C-6.1359157 162.84515595 -6.84102736 162.10191793 -8 158.625 C-8.10200296 156.58170463 -8.14371271 154.53522485 -8.15390015 152.4894104 C-8.16250061 151.20514664 -8.17110107 149.92088287 -8.17996216 148.59770203 C-8.18439724 147.17141764 -8.18869561 145.74513283 -8.19287109 144.31884766 C-8.20077328 142.81914582 -8.20904231 141.31944587 -8.21765137 139.81974792 C-8.24385214 134.89287121 -8.25917439 129.96598607 -8.2734375 125.0390625 C-8.27879748 123.34311289 -8.28417498 121.64716334 -8.28956985 119.95121384 C-8.31119334 112.89798278 -8.32993121 105.84475399 -8.34119225 98.79149818 C-8.3574407 88.68100725 -8.39064601 78.57090004 -8.44759309 68.46055377 C-8.48626817 61.35219362 -8.50582188 54.24393622 -8.51111281 47.13547361 C-8.51476887 42.88911822 -8.52681716 38.64317228 -8.55921555 34.39693069 C-8.5892547 30.4027904 -8.59562327 26.40930822 -8.58383179 22.41507912 C-8.58361072 20.94972469 -8.59194359 19.48434009 -8.60948563 18.01909065 C-8.63214116 16.01770756 -8.62090902 14.01602658 -8.60800171 12.01455688 C-8.61131186 10.89478769 -8.614622 9.7750185 -8.61803246 8.62131691 C-7.61511552 3.75902052 -4.83812086 1.00794185 0 0 Z " fill="#000000" transform="translate(256,211.375)"/>
<path d="M0 0 C17.2006427 5.72306576 33.86938235 27.59660483 44 42 C44.41443359 42.58072266 44.82886719 43.16144531 45.25585938 43.75976562 C51.85403077 53.05310536 57.17030001 62.68895096 62 73 C62.46792969 73.969375 62.93585938 74.93875 63.41796875 75.9375 C64.35153597 77.92571142 65.19032031 79.95819903 66 82 C65.67 82.66 65.34 83.32 65 84 C64.443125 83.43152344 63.88625 82.86304687 63.3125 82.27734375 C62.549375 81.50519531 61.78625 80.73304687 61 79.9375 C60.2575 79.18339844 59.515 78.42929688 58.75 77.65234375 C39.62603872 59.20750041 16.85498321 40.9274916 -7 29 C-5.23076339 19.18877881 -2.58772786 9.62002647 0 0 Z " fill="#F8EFE4" transform="translate(168,45)"/>
<path d="M0 0 C2.475 0.99 2.475 0.99 5 2 C5 93.41 5 184.82 5 279 C3.35 278.34 1.7 277.68 0 277 C0 185.59 0 94.18 0 0 Z " fill="#F9BE5B" transform="translate(63,103)"/>
<path d="M0 0 C0.50220072 2.6245966 1.00185357 5.24963369 1.5 7.875 C1.64308594 8.62136719 1.78617187 9.36773437 1.93359375 10.13671875 C3 15.7734375 3 15.7734375 3 18 C1.84721558 18.50430542 1.84721558 18.50430542 0.67114258 19.01879883 C-31.30119111 33.05270225 -62.264095 48.01714084 -87.9140625 72.22265625 C-89.87652727 73.89479383 -91.64797832 74.97298601 -94 76 C-78.87657181 50.8591242 -32.95408371 0 0 0 Z " fill="#F7EEE2" transform="translate(378,43)"/>
<path d="M0 0 C2.31 0 4.62 0 7 0 C7 82.17 7 164.34 7 249 C5.35 249 3.7 249 2 249 C2 167.16 2 85.32 2 1 C1.34 0.67 0.68 0.34 0 0 Z " fill="#E2910D" transform="translate(273,185)"/>
<path d="M0 0 C1.65 0 3.3 0 5 0 C5 81.84 5 163.68 5 248 C3.35 248 1.7 248 0 248 C0 166.16 0 84.32 0 0 Z " fill="#F7B953" transform="translate(238,186)"/>
<path d="M0 0 C15.84 0 31.68 0 48 0 C48 6.6 48 13.2 48 20 C39.60549231 22.66425181 32.21935228 23.46355649 23.4375 23.375 C22.28314453 23.38660156 21.12878906 23.39820313 19.93945312 23.41015625 C12.70739401 23.38554346 6.81874064 22.42017273 0 20 C0 13.4 0 6.8 0 0 Z " fill="#F5A727" transform="translate(232,450)"/>
<path d="M0 0 C4.05371811 0.84452461 5.40104553 2.44273905 8 5.625 C8.61523438 8.77539062 8.61523438 8.77539062 8.59375 12.28125 C8.59117187 13.55097656 8.58859375 14.82070313 8.5859375 16.12890625 C8.54339844 18.10697266 8.54339844 18.10697266 8.5 20.125 C8.50386719 22.10306641 8.50386719 22.10306641 8.5078125 24.12109375 C8.39680085 35.05574158 8.39680085 35.05574158 5 39.625 C2.19084526 41.02957737 0.11189466 40.87395157 -3 40.625 C-6.1359157 38.84515595 -6.84102736 38.10191793 -8 34.625 C-8.27124388 30.51376683 -8.31313817 26.40268728 -8.35009766 22.28320312 C-8.36665751 20.93114001 -8.39394924 19.57916446 -8.43212891 18.22753906 C-8.48707871 16.26941461 -8.505666 14.3103772 -8.5234375 12.3515625 C-8.54325684 11.18189941 -8.56307617 10.01223633 -8.58349609 8.80712891 C-7.66798643 3.81434522 -4.96419262 1.0342068 0 0 Z " fill="#030200" transform="translate(256,383.375)"/>
<path d="M0 0 C0 10.23 0 20.46 0 31 C-1.32 31.66 -2.64 32.32 -4 33 C-4 24.09 -4 15.18 -4 6 C-6.083125 7.19625 -8.16625 8.3925 -10.3125 9.625 C-18.97136676 14.53773331 -27.8158929 19.07905845 -36.66577148 23.63549805 C-43.7885988 27.31120927 -50.85633556 31.06694192 -57.875 34.9375 C-66.5161056 39.69566895 -75.23653954 44.28508384 -84 48.8125 C-84.59729919 49.12138153 -85.19459839 49.43026306 -85.80999756 49.74850464 C-94.50325014 54.2404137 -103.23907872 58.64200753 -112 63 C-111.7722168 60.66821289 -111.7722168 60.66821289 -111 58 C-109.12426758 56.52124023 -109.12426758 56.52124023 -106.64453125 55.30859375 C-105.72397949 54.84541748 -104.80342773 54.38224121 -103.85498047 53.9050293 C-102.85096191 53.42074463 -101.84694336 52.93645996 -100.8125 52.4375 C-98.68516342 51.37185432 -96.55888448 50.30409502 -94.43359375 49.234375 C-92.81106689 48.42516602 -92.81106689 48.42516602 -91.15576172 47.59960938 C-86.49996312 45.23965328 -81.93939016 42.71844092 -77.375 40.1875 C-68.8237454 35.47889285 -60.1815223 30.96178951 -51.5 26.5 C-39.22618947 20.19131517 -27.0848938 13.66363303 -15 7 C-12.41960987 5.57786643 -9.83645779 4.16106296 -7.25 2.75 C-6.26515625 2.20859375 -5.2803125 1.6671875 -4.265625 1.109375 C-2 0 -2 0 0 0 Z " fill="#D3D3D3" transform="translate(440,163)"/>
<path d="M0 0 C2.97 0 5.94 0 9 0 C9 6.6 9 13.2 9 20 C1.125 22.25 1.125 22.25 -2 21 C-0.02 20.67 1.96 20.34 4 20 C4 13.73 4 7.46 4 1 C2.68 0.67 1.36 0.34 0 0 Z " fill="#E0900D" transform="translate(271,450)"/>
<path d="M0 0 C1.65 0 3.3 0 5 0 C5 6.93 5 13.86 5 21 C3.35 21 1.7 21 0 21 C0 14.07 0 7.14 0 0 Z " fill="#F7B852" transform="translate(238,451)"/>
</svg>
